<svg width="18" height="17" viewBox="0 0 18 17" fill="none" xmlns="http://www.w3.org/2000/svg">
<path d="M6.62763 2.85215C7.68317 0.958612 8.21094 0.0118408 8.99999 0.0118408C9.78904 0.0118408 10.3168 0.958611 11.3724 2.85215L11.6454 3.34203C11.9454 3.88012 12.0954 4.14916 12.3292 4.32668C12.563 4.5042 12.8543 4.57009 13.4368 4.70188L13.967 4.82186C16.0168 5.28564 17.0416 5.51752 17.2855 6.30162C17.5293 7.08571 16.8306 7.90273 15.4332 9.53678L15.0717 9.95953C14.6746 10.4239 14.4761 10.656 14.3868 10.9433C14.2975 11.2305 14.3275 11.5403 14.3875 12.1598L14.4422 12.7238C14.6534 14.904 14.7591 15.9941 14.1207 16.4787C13.4823 16.9633 12.5228 16.5215 10.6036 15.6378L10.1071 15.4092C9.56172 15.1581 9.28903 15.0325 8.99999 15.0325C8.71095 15.0325 8.43826 15.1581 7.8929 15.4092L7.39639 15.6378C5.47722 16.5215 4.51764 16.9633 3.87928 16.4787C3.24092 15.9941 3.34656 14.904 3.55782 12.7238L3.61248 12.1598C3.67251 11.5403 3.70253 11.2305 3.61321 10.9433C3.52389 10.656 3.32534 10.4239 2.92826 9.95953L2.56674 9.53678C1.16936 7.90273 0.470677 7.08571 0.714507 6.30162C0.958338 5.51752 1.9832 5.28564 4.03294 4.82187L4.56323 4.70188C5.1457 4.57009 5.43693 4.5042 5.67078 4.32668C5.90462 4.14916 6.05459 3.88012 6.35455 3.34204L6.62763 2.85215Z" fill="black"/>
</svg>
